<svg viewBox="0 0 512 512" xmlns="http://www.w3.org/2000/svg"><path d="M72.86 407.49h-3.73a15 15 0 0 1-15-15V282.25c0-80.63 65.61-146.25 146.24-146.25h50.21V70.75a15 15 0 0 1 25-11.14l175.6 158.27a15 15 0 0 1 0 22.28L275.63 398.44a15 15 0 0 1-25-11.15V322h-66.98a99.52 99.52 0 0 0-96.28 74.25 15 15 0 0 1-14.51 11.24ZM183.65 292h81.93a15 15 0 0 1 15 15v46.54L418.73 229 280.58 104.47V151a15 15 0 0 1-15 15h-65.21A116.37 116.37 0 0 0 84.13 282.25v56.36A129.6 129.6 0 0 1 183.65 292Z" data-name="1" fill="#ffffff" class="fill-000000"></path></svg>