<svg width="60" height="60" viewBox="0 0 60 60" fill="none" xmlns="http://www.w3.org/2000/svg">
<path d="M27 1.73205C28.8564 0.660254 31.1436 0.660254 33 1.73205L52.9808 13.2679C54.8372 14.3397 55.9808 16.3205 55.9808 18.4641V41.5359C55.9808 43.6795 54.8372 45.6603 52.9808 46.7321L33 58.2679C31.1436 59.3397 28.8564 59.3397 27 58.2679L7.01924 46.7321C5.16283 45.6603 4.01924 43.6795 4.01924 41.5359V18.4641C4.01924 16.3205 5.16283 14.3397 7.01924 13.2679L27 1.73205Z" fill="#99CC36"/>
<path d="M27 4.73205C28.8564 3.66025 31.1436 3.66025 33 4.73205L50.3827 14.7679C52.2391 15.8397 53.3827 17.8205 53.3827 19.9641V40.0359C53.3827 42.1795 52.2391 44.1603 50.3827 45.2321L33 55.2679C31.1436 56.3397 28.8564 56.3397 27 55.2679L9.61731 45.2321C7.76091 44.1603 6.61731 42.1795 6.61731 40.0359V19.9641C6.61731 17.8205 7.76091 15.8397 9.61731 14.7679L27 4.73205Z" fill="#BEEE62"/>
<path d="M22.118 18H37.9698C37.9698 18 36.6489 37.8856 30.044 37.8856C26.8174 37.8856 24.8518 33.1402 23.6852 28.2856C22.4636 23.2027 22.118 18 22.118 18Z" fill="#6F6829" stroke="#6F6829" stroke-width="1.5" stroke-linecap="round" stroke-linejoin="round"/>
<path d="M37.9698 18C37.9698 18 39.3516 16.526 40.5 16.5C42.75 16.4491 43.1659 18 43.1659 18C43.6063 18.9143 43.9585 21.2915 41.845 23.4857C39.7314 25.68 37.3654 27.6 36.4026 28.2857" stroke="#6F6829" stroke-width="1.5" stroke-linecap="round" stroke-linejoin="round"/>
<path d="M22.1179 18C22.1179 18 20.6782 16.5092 19.4999 16.5C17.2499 16.4825 16.8339 18 16.8339 18C16.3936 18.9143 16.0413 21.2914 18.1549 23.4857C20.2685 25.68 22.7223 27.6 23.685 28.2858" stroke="#6F6829" stroke-width="1.5" stroke-linecap="round" stroke-linejoin="round"/>
<path d="M24.7599 42C24.7599 39.2571 30.0438 37.8856 30.0438 37.8856C30.0438 37.8856 35.3278 39.2571 35.3278 42H24.7599Z" fill="#6F6829" stroke="#6F6829" stroke-width="1.5" stroke-linecap="round" stroke-linejoin="round"/>
</svg>
